<?xml version="1.0" standalone="no"?>
<!DOCTYPE svg PUBLIC "-//W3C//DTD SVG 20010904//EN"
 "http://www.w3.org/TR/2001/REC-SVG-20010904/DTD/svg10.dtd">
<svg version="1.0" xmlns="http://www.w3.org/2000/svg"
 width="500.000000pt" height="500.000000pt" viewBox="0 0 500.000000 500.000000"
 preserveAspectRatio="xMidYMid meet">
<metadata>
Created by potrace 1.14, written by Peter Selinger 2001-2017
</metadata>
<g transform="translate(0.000000,500.000000) scale(0.100000,-0.100000)"
fill="#000000" stroke="none">
<path d="M0 2500 l0 -2500 2500 0 2500 0 0 2500 0 2500 -2500 0 -2500 0 0
-2500z m3297 1740 c7 0 28 -14 48 -32 27 -23 49 -32 85 -36 38 -3 52 -10 69
-33 25 -33 33 -35 55 -13 11 10 16 34 16 70 0 53 1 55 23 49 44 -14 74 -53 81
-107 4 -28 19 -79 33 -112 l26 -61 -6 -250 c-3 -137 -13 -308 -22 -380 -8 -71
-18 -259 -22 -418 -3 -158 -8 -285 -11 -282 -10 10 -32 -18 -32 -42 0 -20 4
-24 20 -20 16 4 21 -1 26 -29 3 -19 4 -38 0 -41 -3 -4 -6 3 -6 14 0 11 -7 26
-15 33 -12 10 -16 8 -25 -14 -5 -14 -11 -26 -13 -26 -2 0 -3 44 -3 98 1 94
-13 271 -35 439 -12 87 -29 126 -49 107 -14 -14 -34 -151 -25 -178 4 -12 10
-50 14 -86 5 -36 13 -90 19 -120 13 -71 24 -260 11 -210 -4 19 -12 86 -18 148
-5 62 -12 116 -16 120 -28 29 -33 -156 -9 -378 9 -80 19 -181 24 -225 33 -317
-21 -1261 -78 -1358 -15 -27 -25 -33 -60 -35 -23 -2 -42 1 -42 6 0 4 -6 17
-14 27 -14 19 -15 19 -35 1 -38 -34 -47 -16 -54 100 -11 167 -8 281 9 431 17
153 24 431 11 451 -14 20 -33 -2 -46 -53 -7 -29 -21 -50 -41 -65 l-30 -21 0
-350 0 -351 -27 33 c-27 32 -27 32 -35 253 -5 132 -13 231 -20 246 -8 17 -13
118 -16 301 -3 246 -1 292 18 417 29 190 17 264 -40 249 -19 -5 -20 0 -20 108
0 63 -4 116 -9 119 -5 3 -38 -45 -74 -107 -56 -96 -68 -125 -82 -202 -20 -111
-69 -266 -93 -295 -16 -20 -19 -20 -31 -7 -7 9 -16 46 -19 84 -10 95 -29 96
-78 3 -20 -39 -54 -86 -76 -104 -27 -23 -38 -41 -38 -60 0 -15 -11 -38 -25
-51 -48 -49 -131 -22 -155 50 -10 31 -40 50 -40 25 0 -39 -81 36 -132 122 -22
38 -51 98 -64 133 -13 36 -41 90 -62 122 -22 32 -61 95 -87 141 -26 46 -51 80
-56 75 -5 -5 -13 -150 -19 -323 -6 -173 -17 -393 -26 -488 -17 -192 -24 -729
-10 -751 8 -12 11 -11 23 4 11 16 13 7 13 -73 0 -103 -14 -185 -36 -203 -8 -6
-14 -10 -14 -8 0 2 -9 69 -21 149 -14 105 -21 207 -22 367 -2 234 -9 270 -41
221 -16 -24 -20 -66 -46 -428 -5 -80 -17 -180 -25 -223 -8 -43 -15 -81 -15
-83 0 -12 -23 -1 -53 26 -19 16 -39 30 -45 30 -6 0 -16 -17 -23 -37 -6 -21
-17 -46 -24 -56 -11 -16 -13 -16 -29 8 -13 19 -14 30 -7 39 14 17 -12 41 -33
33 -12 -5 -14 -17 -9 -57 l6 -50 -32 0 c-37 0 -45 15 -58 103 -9 64 -25 76
-34 25 -10 -58 -18 -9 -23 142 -3 80 -9 186 -15 235 -12 114 -13 1626 -1 1880
13 275 38 638 50 730 13 96 39 225 47 225 2 0 12 -9 21 -20 15 -18 20 -19 50
-8 22 9 32 19 32 34 0 13 15 35 36 54 35 30 38 31 103 25 79 -9 100 -21 178
-105 101 -110 171 -210 220 -313 26 -54 193 -355 246 -442 64 -106 81 -140
146 -298 54 -132 70 -162 86 -162 26 0 53 50 154 285 44 102 135 302 202 445
67 143 149 325 183 404 43 102 72 157 101 188 40 45 88 66 130 57 11 -2 25 -4
32 -4z m370 -1846 c21 9 33 -10 32 -54 0 -32 -1 -33 -11 -12 -20 40 -35 25
-41 -40 -4 -35 -10 -148 -14 -253 l-8 -190 -7 100 c-8 100 -3 360 9 445 5 39
7 42 15 21 6 -16 13 -21 25 -17z m14 -1015 c-13 -434 -15 -450 -51 -489 -50
-54 -53 -45 -46 123 4 83 16 269 26 412 11 143 20 269 20 281 0 12 9 31 20 44
11 12 23 46 27 74 l8 51 3 -65 c2 -36 -1 -230 -7 -431z"/>
<path d="M3514 3346 c-4 -10 -2 -22 4 -28 8 -8 13 -7 18 6 4 10 2 22 -4 28 -8
8 -13 7 -18 -6z"/>
<path d="M3522 3263 c5 -25 28 -28 28 -4 0 12 -6 21 -16 21 -9 0 -14 -7 -12
-17z"/>
<path d="M2967 3023 c-4 -3 -7 -17 -7 -30 0 -35 34 -26 38 10 3 26 -14 37 -31
20z"/>
<path d="M2951 2946 c-7 -8 -13 -27 -14 -43 -3 -40 25 -36 36 6 9 38 -3 60
-22 37z"/>
<path d="M2866 2804 c-11 -29 -6 -65 10 -71 21 -8 34 13 34 55 0 25 -4 32 -19
32 -10 0 -22 -7 -25 -16z"/>
<path d="M2100 2644 c0 -29 16 -64 30 -64 15 0 21 36 11 64 -14 34 -41 35 -41
0z"/>
<path d="M3077 2606 c-7 -18 3 -56 14 -56 12 0 12 57 0 64 -5 3 -11 0 -14 -8z"/>
<path d="M2316 2224 c-10 -26 -7 -59 8 -79 13 -18 14 -18 26 4 14 28 5 91 -14
91 -8 0 -17 -7 -20 -16z"/>
<path d="M3316 1845 c-12 -33 -7 -180 8 -201 14 -18 15 -18 22 -1 9 25 0 178
-13 201 -9 17 -11 17 -17 1z"/>
</g>
</svg>
